<svg width="85" height="20" viewBox="0 0 85 20" fill="none" xmlns="http://www.w3.org/2000/svg">
<path d="M14 11.5V15C14 15.2652 13.8946 15.5196 13.7071 15.7071C13.5196 15.8946 13.2652 16 13 16H3C2.73478 16 2.48043 15.8946 2.29289 15.7071C2.10536 15.5196 2 15.2652 2 15V11.5C2 11.3674 2.05268 11.2402 2.14645 11.1464C2.24021 11.0527 2.36739 11 2.5 11C2.63261 11 2.75979 11.0527 2.85355 11.1464C2.94732 11.2402 3 11.3674 3 11.5V15H13V11.5C13 11.3674 13.0527 11.2402 13.1464 11.1464C13.2402 11.0527 13.3674 11 13.5 11C13.6326 11 13.7598 11.0527 13.8536 11.1464C13.9473 11.2402 14 11.3674 14 11.5ZM7.64625 11.8538C7.69269 11.9002 7.74783 11.9371 7.80853 11.9623C7.86923 11.9874 7.93429 12.0004 8 12.0004C8.06571 12.0004 8.13077 11.9874 8.19147 11.9623C8.25217 11.9371 8.30731 11.9002 8.35375 11.8538L10.8538 9.35375C10.9002 9.3073 10.9371 9.25214 10.9622 9.19145C10.9873 9.13075 11.0003 9.0657 11.0003 9C11.0003 8.9343 10.9873 8.86925 10.9622 8.80855C10.9371 8.74786 10.9002 8.6927 10.8538 8.64625C10.8073 8.59979 10.7521 8.56294 10.6914 8.5378C10.6308 8.51266 10.5657 8.49972 10.5 8.49972C10.4343 8.49972 10.3692 8.51266 10.3086 8.5378C10.2479 8.56294 10.1927 8.59979 10.1462 8.64625L8.5 10.2931V4.5C8.5 4.36739 8.44732 4.24021 8.35355 4.14645C8.25979 4.05268 8.13261 4 8 4C7.86739 4 7.74021 4.05268 7.64645 4.14645C7.55268 4.24021 7.5 4.36739 7.5 4.5V10.2931L5.85375 8.64625C5.75993 8.55243 5.63268 8.49972 5.5 8.49972C5.36732 8.49972 5.24007 8.55243 5.14625 8.64625C5.05243 8.74007 4.99972 8.86732 4.99972 9C4.99972 9.13268 5.05243 9.25993 5.14625 9.35375L7.64625 11.8538Z" fill="#252C32"/>
<path d="M27.7841 14H24.9588V5.27273H27.8736C28.7287 5.27273 29.4631 5.44744 30.0767 5.79688C30.6903 6.14347 31.1605 6.64205 31.4872 7.29261C31.8168 7.94034 31.9815 8.71733 31.9815 9.62358C31.9815 10.5327 31.8153 11.3139 31.483 11.9673C31.1534 12.6207 30.6761 13.1236 30.0511 13.4759C29.4261 13.8253 28.6705 14 27.7841 14ZM26.2756 12.8494H27.7116C28.3764 12.8494 28.929 12.7244 29.3693 12.4744C29.8097 12.2216 30.1392 11.8565 30.358 11.3793C30.5767 10.8991 30.6861 10.3139 30.6861 9.62358C30.6861 8.93892 30.5767 8.35795 30.358 7.88068C30.142 7.40341 29.8196 7.04119 29.3906 6.79403C28.9616 6.54687 28.429 6.4233 27.7926 6.4233H26.2756V12.8494ZM36.7738 14.1321C36.1602 14.1321 35.6246 13.9915 35.1673 13.7102C34.7099 13.429 34.3548 13.0355 34.1019 12.5298C33.8491 12.0241 33.7227 11.4332 33.7227 10.7571C33.7227 10.0781 33.8491 9.48437 34.1019 8.97585C34.3548 8.46733 34.7099 8.07244 35.1673 7.79119C35.6246 7.50994 36.1602 7.36932 36.7738 7.36932C37.3874 7.36932 37.9229 7.50994 38.3803 7.79119C38.8377 8.07244 39.1928 8.46733 39.4457 8.97585C39.6985 9.48437 39.8249 10.0781 39.8249 10.7571C39.8249 11.4332 39.6985 12.0241 39.4457 12.5298C39.1928 13.0355 38.8377 13.429 38.3803 13.7102C37.9229 13.9915 37.3874 14.1321 36.7738 14.1321ZM36.7781 13.0625C37.1758 13.0625 37.5053 12.9574 37.7667 12.7472C38.0281 12.5369 38.2212 12.2571 38.3462 11.9077C38.4741 11.5582 38.538 11.1733 38.538 10.7528C38.538 10.3352 38.4741 9.9517 38.3462 9.60227C38.2212 9.25 38.0281 8.96733 37.7667 8.75426C37.5053 8.54119 37.1758 8.43466 36.7781 8.43466C36.3775 8.43466 36.0451 8.54119 35.7809 8.75426C35.5195 8.96733 35.3249 9.25 35.1971 9.60227C35.0721 9.9517 35.0096 10.3352 35.0096 10.7528C35.0096 11.1733 35.0721 11.5582 35.1971 11.9077C35.3249 12.2571 35.5195 12.5369 35.7809 12.7472C36.0451 12.9574 36.3775 13.0625 36.7781 13.0625ZM42.967 14L41.0408 7.45455H42.3576L43.6403 12.2614H43.7042L44.9911 7.45455H46.3079L47.5863 12.2401H47.6502L48.9244 7.45455H50.2411L48.3192 14H47.0195L45.69 9.27415H45.592L44.2624 14H42.967ZM53.2244 10.1136V14H51.9503V7.45455H53.1733V8.51989H53.2543C53.4048 8.1733 53.6406 7.89489 53.9616 7.68466C54.2855 7.47443 54.6932 7.36932 55.1847 7.36932C55.6307 7.36932 56.0213 7.46307 56.3565 7.65057C56.6918 7.83523 56.9517 8.1108 57.1364 8.47727C57.321 8.84375 57.4134 9.29687 57.4134 9.83665V14H56.1392V9.99006C56.1392 9.51562 56.0156 9.14489 55.7685 8.87784C55.5213 8.60795 55.1818 8.47301 54.75 8.47301C54.4545 8.47301 54.1918 8.53693 53.9616 8.66477C53.7344 8.79261 53.554 8.98011 53.4205 9.22727C53.2898 9.47159 53.2244 9.76705 53.2244 10.1136ZM60.8963 5.27273V14H59.6222V5.27273H60.8963ZM65.8675 14.1321C65.2539 14.1321 64.7184 13.9915 64.261 13.7102C63.8036 13.429 63.4485 13.0355 63.1957 12.5298C62.9428 12.0241 62.8164 11.4332 62.8164 10.7571C62.8164 10.0781 62.9428 9.48437 63.1957 8.97585C63.4485 8.46733 63.8036 8.07244 64.261 7.79119C64.7184 7.50994 65.2539 7.36932 65.8675 7.36932C66.4812 7.36932 67.0167 7.50994 67.4741 7.79119C67.9315 8.07244 68.2866 8.46733 68.5394 8.97585C68.7923 9.48437 68.9187 10.0781 68.9187 10.7571C68.9187 11.4332 68.7923 12.0241 68.5394 12.5298C68.2866 13.0355 67.9315 13.429 67.4741 13.7102C67.0167 13.9915 66.4812 14.1321 65.8675 14.1321ZM65.8718 13.0625C66.2695 13.0625 66.5991 12.9574 66.8604 12.7472C67.1218 12.5369 67.315 12.2571 67.44 11.9077C67.5678 11.5582 67.6317 11.1733 67.6317 10.7528C67.6317 10.3352 67.5678 9.9517 67.44 9.60227C67.315 9.25 67.1218 8.96733 66.8604 8.75426C66.5991 8.54119 66.2695 8.43466 65.8718 8.43466C65.4712 8.43466 65.1388 8.54119 64.8746 8.75426C64.6133 8.96733 64.4187 9.25 64.2908 9.60227C64.1658 9.9517 64.1033 10.3352 64.1033 10.7528C64.1033 11.1733 64.1658 11.5582 64.2908 11.9077C64.4187 12.2571 64.6133 12.5369 64.8746 12.7472C65.1388 12.9574 65.4712 13.0625 65.8718 13.0625ZM72.7457 14.1449C72.331 14.1449 71.956 14.0682 71.6207 13.9148C71.2855 13.7585 71.0199 13.5327 70.8239 13.2372C70.6307 12.9418 70.5341 12.5795 70.5341 12.1506C70.5341 11.7812 70.6051 11.4773 70.7472 11.2386C70.8892 11 71.081 10.8111 71.3224 10.6719C71.5639 10.5327 71.8338 10.4276 72.1321 10.3565C72.4304 10.2855 72.7344 10.2315 73.044 10.1946C73.4361 10.1491 73.7543 10.1122 73.9986 10.0838C74.2429 10.0526 74.4205 10.0028 74.5312 9.93466C74.642 9.86648 74.6974 9.75568 74.6974 9.60227V9.57244C74.6974 9.20028 74.5923 8.91193 74.3821 8.70739C74.1747 8.50284 73.8651 8.40057 73.4531 8.40057C73.0241 8.40057 72.6861 8.49574 72.4389 8.68608C72.1946 8.87358 72.0256 9.08239 71.9318 9.3125L70.7344 9.03977C70.8764 8.64205 71.0838 8.32102 71.3565 8.0767C71.6321 7.82955 71.9489 7.65057 72.3068 7.53977C72.6648 7.42614 73.0412 7.36932 73.4361 7.36932C73.6974 7.36932 73.9744 7.40057 74.267 7.46307C74.5625 7.52273 74.8381 7.63352 75.0938 7.79545C75.3523 7.95739 75.5639 8.18892 75.7287 8.49006C75.8935 8.78835 75.9759 9.17614 75.9759 9.65341V14H74.7315V13.1051H74.6804C74.598 13.2699 74.4744 13.4318 74.3097 13.5909C74.1449 13.75 73.9332 13.8821 73.6747 13.9872C73.4162 14.0923 73.1065 14.1449 72.7457 14.1449ZM73.0227 13.1222C73.375 13.1222 73.6761 13.0526 73.9261 12.9134C74.179 12.7741 74.3707 12.5923 74.5014 12.3679C74.6349 12.1406 74.7017 11.8977 74.7017 11.6392V10.7955C74.6563 10.8409 74.5682 10.8835 74.4375 10.9233C74.3097 10.9602 74.1634 10.9929 73.9986 11.0213C73.8338 11.0469 73.6733 11.071 73.517 11.0938C73.3608 11.1136 73.2301 11.1307 73.125 11.1449C72.8778 11.1761 72.652 11.2287 72.4474 11.3026C72.2457 11.3764 72.0838 11.483 71.9616 11.6222C71.8423 11.7585 71.7827 11.9403 71.7827 12.1676C71.7827 12.483 71.8991 12.7216 72.1321 12.8835C72.3651 13.0426 72.6619 13.1222 73.0227 13.1222ZM80.6232 14.1278C80.0948 14.1278 79.6232 13.9929 79.2085 13.723C78.7965 13.4503 78.4727 13.0625 78.2369 12.5597C78.0039 12.054 77.8874 11.4474 77.8874 10.7401C77.8874 10.0327 78.0053 9.42756 78.2411 8.92472C78.4798 8.42187 78.8065 8.03693 79.2212 7.76989C79.636 7.50284 80.1062 7.36932 80.6317 7.36932C81.038 7.36932 81.3647 7.4375 81.6119 7.57386C81.8619 7.70739 82.055 7.86364 82.1914 8.04261C82.3306 8.22159 82.4386 8.37926 82.5153 8.51562H82.592V5.27273H83.8661V14H82.6218V12.9815H82.5153C82.4386 13.1207 82.3278 13.2798 82.1829 13.4588C82.0408 13.6378 81.8448 13.794 81.5948 13.9276C81.3448 14.0611 81.021 14.1278 80.6232 14.1278ZM80.9045 13.0412C81.271 13.0412 81.5806 12.9446 81.8335 12.7514C82.0891 12.5554 82.2823 12.2841 82.413 11.9375C82.5465 11.5909 82.6133 11.1875 82.6133 10.7273C82.6133 10.2727 82.5479 9.875 82.4173 9.53409C82.2866 9.19318 82.0948 8.92756 81.842 8.73722C81.5891 8.54687 81.2766 8.4517 80.9045 8.4517C80.521 8.4517 80.2013 8.55114 79.9457 8.75C79.69 8.94886 79.4968 9.22017 79.3661 9.56392C79.2383 9.90767 79.1744 10.2955 79.1744 10.7273C79.1744 11.1648 79.2397 11.5582 79.3704 11.9077C79.5011 12.2571 79.6942 12.5341 79.9499 12.7386C80.2085 12.9403 80.5266 13.0412 80.9045 13.0412Z" fill="#252C32"/>
</svg>
