<svg width="40" height="40" viewBox="0 0 40 40" fill="none" xmlns="http://www.w3.org/2000/svg">
<path fill-rule="evenodd" clip-rule="evenodd" d="M20 25C18.8954 25 18 25.8954 18 27C18 28.1046 18.8954 29 20 29C21.1046 29 22 28.1046 22 27C22 25.8954 21.1046 25 20 25Z" fill="white"/>
<path fill-rule="evenodd" clip-rule="evenodd" d="M20 18C18.8954 18 18 18.8954 18 20C18 21.1046 18.8954 22 20 22C21.1046 22 22 21.1046 22 20C22 18.8954 21.1046 18 20 18Z" fill="white"/>
<path fill-rule="evenodd" clip-rule="evenodd" d="M20 11C18.8954 11 18 11.8954 18 13C18 14.1046 18.8954 15 20 15C21.1046 15 22 14.1046 22 13C22 11.8954 21.1046 11 20 11Z" fill="white"/>
</svg>
