
<svg width="14" height="14" viewBox="0 0 14 14" fill="none" xmlns="http://www.w3.org/2000/svg">
<path d="M10.8555 9.92738L13.6666 12.7384L12.7383 13.6667L9.9273 10.8556C8.91656 11.6643 7.63473 12.148 6.2406 12.148C2.97974 12.148 0.333252 9.50152 0.333252 6.24067C0.333252 2.97982 2.97974 0.333328 6.2406 0.333328C9.50145 0.333328 12.1479 2.97982 12.1479 6.24067C12.1479 7.6348 11.6642 8.91663 10.8555 9.92738ZM9.53866 9.44035C10.3413 8.61319 10.8352 7.48489 10.8352 6.24067C10.8352 3.70215 8.77911 1.64607 6.2406 1.64607C3.70208 1.64607 1.64599 3.70215 1.64599 6.24067C1.64599 8.77919 3.70208 10.8353 6.2406 10.8353C7.48481 10.8353 8.61312 10.3414 9.44027 9.53874L9.53866 9.44035Z" fill="white"/>
</svg>
